# xmcd
#
# Track frame offsets:
# 150
# 23255
# 67500
# 96757
# 122530
# 151217
# 193510
# 221167
# 261490
# 292562
#
# Disc length: 4226 seconds
#
#
# Revision: 2
# Processed by: cddbd v1.4PL0 Copyright (c) Steve Scherf et al.
# Submitted via: FreeRIP 2.51 
#
DISCID=7810800a
DTITLE=Too Short - The Players Years 1983-1988 Disc One
DYEAR=1993
DGENRE=Rap
TTITLE0=The Invasion of the Flat Booty Bitches
TTITLE1=She's A Bitch
TTITLE2=The Bitch Sucks Dick
TTITLE3=Blow Job Betty
TTITLE4=Short Side
TTITLE5=Playboy Short
TTITLE6=From Here to New York
TTITLE7=Girl (Cocaine) That's Your Life
TTITLE8=Coke Dealers
TTITLE9=Female Funk
EXTD=
EXTT0=
EXTT1=
EXTT2=
EXTT3=
EXTT4=
EXTT5=
EXTT6=
EXTT7=
EXTT8=
EXTT9=
PLAYORDER=
